name C:\Users\u0101727\Documents\MyRepositories\upper-imu-dc\Results\main_mocap_tracking\Case_8\FLX01_angularVelocities.mot
datacolumns 4
datarows 117
range 0.51000000 1.67000000
endheader 
time	radius_imu_x	radius_imu_y	radius_imu_z	
          0.51000000	         -0.12600916	          1.75920987	          0.19992118	
          0.52000000	         -0.20766032	          1.78832775	          0.15853494	
          0.53000000	         -0.26297789	          1.80346465	          0.13924795	
          0.54000000	         -0.29902477	          1.76736806	          0.13676013	
          0.55000000	         -0.32166883	          1.66525869	          0.14546705	
          0.56000000	         -0.33653740	          1.50045478	          0.16221444	
          0.57000000	         -0.34812593	          1.28700354	          0.18508131	
          0.58000000	         -0.35929609	          1.04025934	          0.21259669	
          0.59000000	         -0.37130361	          0.77067100	          0.24335484	
          0.60000000	         -0.38420737	          0.48179465	          0.27600680	
          0.61000000	         -0.39739507	          0.17199614	          0.30929645	
          0.62000000	         -0.41013866	         -0.16051337	          0.34202864	
          0.63000000	         -0.42216310	         -0.51072700	          0.37290247	
          0.64000000	         -0.43407269	         -0.86201798	          0.40047479	
          0.65000000	         -0.44742975	         -1.18661810	          0.42329920	
          0.66000000	         -0.46435614	         -1.45184118	          0.44001318	
          0.67000000	         -0.48680277	         -1.62979517	          0.44936266	
          0.68000000	         -0.51586201	         -1.70591989	          0.45018072	
          0.69000000	         -0.55143637	         -1.68259609	          0.44141332	
          0.70000000	         -0.59235799	         -1.57700623	          0.42221837	
          0.71000000	         -0.63682787	         -1.41516027	          0.39210307	
          0.72000000	         -0.68293510	         -1.22509940	          0.35101592	
          0.73000000	         -0.72906128	         -1.03157693	          0.29934050	
          0.74000000	         -0.77408402	         -0.85315789	          0.23779732	
          0.75000000	         -0.81738668	         -0.70159523	          0.16729277	
          0.76000000	         -0.85873581	         -0.58275714	          0.08875628	
          0.77000000	         -0.89810401	         -0.49829734	          0.00300110	
          0.78000000	         -0.93549595	         -0.44752405	         -0.08936947	
          0.79000000	         -0.97081185	         -0.42918120	         -0.18800070	
          0.80000000	         -1.00377826	         -0.44281113	         -0.29276401	
          0.81000000	         -1.03397050	         -0.48931252	         -0.40366869	
          0.82000000	         -1.06092169	         -0.57044960	         -0.52074234	
          0.83000000	         -1.08428496	         -0.68740320	         -0.64394238	
          0.84000000	         -1.10400629	         -0.83889015	         -0.77312013	
          0.85000000	         -1.12043709	         -1.01981054	         -0.90800538	
          0.86000000	         -1.13429141	         -1.22152331	         -1.04815830	
          0.87000000	         -1.14640284	         -1.43424125	         -1.19285819	
          0.88000000	         -1.15736366	         -1.65084419	         -1.34094962	
          0.89000000	         -1.16723768	         -1.87044707	         -1.49070710	
          0.90000000	         -1.17551963	         -2.10005097	         -1.63979174	
          0.91000000	         -1.18139561	         -2.35346848	         -1.78533823	
          0.92000000	         -1.18422528	         -2.64782258	         -1.92416151	
          0.93000000	         -1.18407552	         -2.99864304	         -2.05307684	
          0.94000000	         -1.18216817	         -3.41462763	         -2.16925138	
          0.95000000	         -1.18111965	         -3.89286309	         -2.27053798	
          0.96000000	         -1.18486673	         -4.41518292	         -2.35578370	
          0.97000000	         -1.19821433	         -4.94655180	         -2.42508995	
          0.98000000	         -1.22599419	         -5.43675128	         -2.48000576	
          0.99000000	         -1.27190254	         -5.82656083	         -2.52360755	
          1.00000000	         -1.33722885	         -6.05856516	         -2.56041527	
          1.01000000	         -1.41965252	         -6.09015965	         -2.59620590	
          1.02000000	         -1.51414234	         -5.90631821	         -2.63662694	
          1.03000000	         -1.61530434	         -5.52520550	         -2.68583308	
          1.04000000	         -1.71600104	         -4.99087982	         -2.74708203	
          1.05000000	         -1.80766292	         -4.36416035	         -2.82234942	
          1.06000000	         -1.88310441	         -3.71540595	         -2.91117929	
          1.07000000	         -1.93745454	         -3.11531059	         -3.01049873	
          1.08000000	         -1.96883354	         -2.62464875	         -3.11492797	
          1.09000000	         -1.97875123	         -2.28454715	         -3.21752078	
          1.10000000	         -1.97214472	         -2.10867909	         -3.31108641	
          1.11000000	         -1.95371787	         -2.07777745	         -3.39085442	
          1.12000000	         -1.92457307	         -2.14240282	         -3.45561578	
          1.13000000	         -1.88926124	         -2.24429502	         -3.50374169	
          1.14000000	         -1.85525113	         -2.33048093	         -3.53261372	
          1.15000000	         -1.82628940	         -2.35961934	         -3.54112945	
          1.16000000	         -1.80281285	         -2.31175990	         -3.52882160	
          1.17000000	         -1.78258134	         -2.19098486	         -3.49499682	
          1.18000000	         -1.76199545	         -2.02217708	         -3.43828730	
          1.19000000	         -1.73758605	         -1.84244401	         -3.35656511	
          1.20000000	         -1.70724104	         -1.68912503	         -3.24732111	
          1.21000000	         -1.67081540	         -1.58731900	         -3.10840779	
          1.22000000	         -1.62993892	         -1.54089320	         -2.93889821	
          1.23000000	         -1.58705408	         -1.53084280	         -2.73968766	
          1.24000000	         -1.54398295	         -1.52301024	         -2.51349203	
          1.25000000	         -1.50062237	         -1.48325136	         -2.26398547	
          1.26000000	         -1.45465651	         -1.39364003	         -1.99420417	
          1.27000000	         -1.40244458	         -1.26016116	         -1.70456758	
          1.28000000	         -1.33317898	         -1.10816405	         -1.39474212	
          1.29000000	         -1.29049362	         -0.92159731	         -1.07929060	
          1.30000000	         -1.26700975	         -0.65930458	         -0.78746803	
          1.31000000	         -1.22902742	         -0.39366590	         -0.51257361	
          1.32000000	         -1.17985725	         -0.12483648	         -0.26064263	
          1.33000000	         -1.14200399	          0.21056061	         -0.06040542	
          1.34000000	         -1.15930575	          0.62481176	          0.09884594	
          1.35000000	         -1.24000808	          1.05700490	          0.23612536	
          1.36000000	         -1.35339248	          1.45242782	          0.35159663	
          1.37000000	         -1.46993152	          1.76842158	          0.44372742	
          1.38000000	         -1.56766213	          1.97904886	          0.51138622	
          1.39000000	         -1.63457705	          2.07546879	          0.55568715	
          1.40000000	         -1.66765698	          2.07020790	          0.57963490	
          1.41000000	         -1.67072098	          1.99726880	          0.58673460	
          1.42000000	         -1.65196633	          1.90303247	          0.58008505	
          1.43000000	         -1.61949028	          1.83234970	          0.56145719	
          1.44000000	         -1.58309293	          1.80592671	          0.53197257	
          1.45000000	         -1.54944864	          1.82114127	          0.49426233	
          1.46000000	         -1.51658259	          1.85740488	          0.45189785	
          1.47000000	         -1.48117842	          1.89584490	          0.40551402	
          1.48000000	         -1.46263441	          1.89308192	          0.35422600	
          1.49000000	         -1.43556363	          1.83816502	          0.30414373	
          1.50000000	         -1.40667515	          1.72863108	          0.25597978	
          1.51000000	         -1.37567627	          1.57601164	          0.20980933	
          1.52000000	         -1.34299387	          1.39521448	          0.16580889	
          1.53000000	         -1.30936567	          1.20012821	          0.12412348	
          1.54000000	         -1.27549485	          1.00016162	          0.08502706	
          1.55000000	         -1.24211351	          0.80166700	          0.04883715	
          1.56000000	         -1.21024754	          0.61224342	          0.01573691	
          1.57000000	         -1.18124283	          0.44267897	         -0.01432303	
          1.58000000	         -1.15640471	          0.30440386	         -0.04153738	
          1.59000000	         -1.13656336	          0.20549590	         -0.06608673	
          1.60000000	         -1.12188523	          0.14876872	         -0.08806001	
          1.61000000	         -1.11186242	          0.13126542	         -0.10744885	
          1.62000000	         -1.10527632	          0.14297089	         -0.12410956	
          1.63000000	         -1.10025959	          0.16644693	         -0.13772498	
          1.64000000	         -1.09474683	          0.18104733	         -0.14791600	
          1.65000000	         -1.08728630	          0.17157044	         -0.15454612	
          1.66000000	         -1.07779336	          0.13660904	         -0.15807505	
          1.67000000	         -1.06773181	          0.09069896	         -0.15972227	
